<svg width="22" height="22" viewBox="0 0 22 22" fill="none" xmlns="http://www.w3.org/2000/svg">
<path fill-rule="evenodd" clip-rule="evenodd" d="M18.902 3.09793C18.5538 2.7496 18.1404 2.47329 17.6853 2.28477C17.2303 2.09626 16.7426 1.99923 16.25 1.99923C15.7575 1.99923 15.2698 2.09626 14.8148 2.28477C14.3597 2.47329 13.9463 2.7496 13.598 3.09793L9.09805 7.59792C8.67351 8.02209 8.35697 8.54195 8.17503 9.11383C7.99308 9.68571 7.95105 10.2929 8.05246 10.8844C8.15386 11.4759 8.39575 12.0344 8.7578 12.513C9.11984 12.9917 9.59146 13.3764 10.133 13.6349C10.3064 13.7242 10.4381 13.8775 10.5003 14.0623C10.5625 14.2471 10.5503 14.4488 10.4663 14.6248C10.3823 14.8007 10.2331 14.937 10.0503 15.0048C9.86748 15.0726 9.66546 15.0665 9.48705 14.9879C8.72916 14.6259 8.06919 14.0873 7.56256 13.4174C7.05593 12.7475 6.71743 11.9658 6.57547 11.138C6.43352 10.3101 6.49225 9.46032 6.74675 8.65989C7.00124 7.85946 7.44407 7.13177 8.03805 6.53793L12.538 2.03793C13.0232 1.54006 13.6024 1.1435 14.242 0.871257C14.8816 0.599014 15.569 0.45651 16.2641 0.452014C16.9593 0.447518 17.6484 0.581119 18.2915 0.845065C18.9346 1.10901 19.5188 1.49805 20.0104 1.98959C20.5019 2.48114 20.891 3.06542 21.1549 3.70851C21.4189 4.35161 21.5525 5.04072 21.548 5.73586C21.5435 6.431 21.401 7.11833 21.1287 7.75796C20.8565 8.39758 20.4599 8.97678 19.962 9.46193L18.205 11.2189C18.1364 11.2926 18.0536 11.3517 17.9616 11.3927C17.8696 11.4337 17.7703 11.4557 17.6696 11.4575C17.5689 11.4593 17.4688 11.4408 17.3755 11.403C17.2821 11.3653 17.1972 11.3092 17.126 11.238C17.0548 11.1667 16.9986 11.0819 16.9609 10.9885C16.9232 10.8951 16.9047 10.7951 16.9065 10.6944C16.9082 10.5937 16.9303 10.4944 16.9713 10.4024C17.0123 10.3104 17.0714 10.2276 17.145 10.1589L18.902 8.40193C19.2504 8.05369 19.5267 7.64025 19.7152 7.18522C19.9037 6.73018 20.0007 6.24247 20.0007 5.74993C20.0007 5.25738 19.9037 4.76967 19.7152 4.31463C19.5267 3.8596 19.2504 3.44616 18.902 3.09793ZM11.513 7.36492C11.5989 7.18553 11.7524 7.04757 11.94 6.98137C12.1275 6.91517 12.3336 6.92616 12.513 7.01193C13.2709 7.37395 13.9309 7.91253 14.4375 8.58245C14.9442 9.25236 15.2827 10.0341 15.4246 10.8619C15.5666 11.6897 15.5078 12.5395 15.2533 13.34C14.9989 14.1404 14.556 14.8681 13.962 15.4619L9.46205 19.9619C8.9769 20.4598 8.39771 20.8564 7.75808 21.1286C7.11845 21.4008 6.43112 21.5433 5.73598 21.5478C5.04084 21.5523 4.35173 21.4187 3.70863 21.1548C3.06554 20.8908 2.48126 20.5018 1.98972 20.0103C1.49817 19.5187 1.10913 18.9344 0.845187 18.2913C0.581241 17.6482 0.44764 16.9591 0.452136 16.264C0.456632 15.5689 0.599136 14.8815 0.871379 14.2419C1.14362 13.6023 1.54018 13.0231 2.03805 12.5379L3.79505 10.7809C3.86371 10.7072 3.94651 10.6481 4.03851 10.6071C4.13051 10.5662 4.22982 10.5441 4.33052 10.5423C4.43123 10.5406 4.53126 10.5591 4.62464 10.5968C4.71803 10.6345 4.80287 10.6907 4.87409 10.7619C4.9453 10.8331 5.00145 10.9179 5.03917 11.0113C5.07689 11.1047 5.09542 11.2047 5.09364 11.3054C5.09186 11.4062 5.06982 11.5055 5.02883 11.5975C4.98784 11.6895 4.92873 11.7723 4.85505 11.8409L3.09805 13.5979C2.74978 13.9462 2.47352 14.3596 2.28504 14.8147C2.09656 15.2697 1.99955 15.7574 1.99955 16.2499C1.99955 16.7424 2.09656 17.2301 2.28504 17.6852C2.47352 18.1402 2.74978 18.5537 3.09805 18.9019C3.44631 19.2502 3.85976 19.5265 4.3148 19.7149C4.76983 19.9034 5.25753 20.0004 5.75005 20.0004C6.24257 20.0004 6.73027 19.9034 7.1853 19.7149C7.64033 19.5265 8.05378 19.2502 8.40205 18.9019L12.902 14.4019C13.3266 13.9778 13.6431 13.4579 13.8251 12.886C14.007 12.3141 14.049 11.7069 13.9476 11.1154C13.8462 10.5239 13.6043 9.96543 13.2423 9.48681C12.8803 9.00819 12.4086 8.62346 11.867 8.36492C11.7781 8.32252 11.6984 8.26301 11.6325 8.1898C11.5666 8.11659 11.5158 8.03112 11.4829 7.93826C11.45 7.84539 11.4358 7.74696 11.4409 7.64859C11.4461 7.55022 11.4706 7.45383 11.513 7.36492Z" fill="#67727E"/>
</svg>
