<svg width="41" height="40" viewBox="0 0 41 40" fill="none" xmlns="http://www.w3.org/2000/svg">
<path d="M11.7985 30.9161H5.60693L6.44386 16.6323H10.9539L11.7985 30.9161Z" fill="#0070FF"/>
<path d="M12.7176 12.4046V14.2946L11.8368 15.1215H5.56604L4.68604 14.2946V12.4046H12.7176Z" fill="#0070FF"/>
<path d="M13.322 33.1484V34.3927H4.07617V33.1484C4.43064 32.8693 4.61918 32.7034 4.9585 32.4244H12.4472C12.7865 32.7034 12.975 32.8693 13.322 33.1484Z" fill="#0070FF"/>
<path d="M35.3952 30.9161H29.2036L30.0413 16.6323H34.5505L35.3952 30.9161Z" fill="#0070FF"/>
<path d="M36.3138 12.4046V14.2946L35.4338 15.1215H29.163L28.2822 14.2946V12.4046H36.3138Z" fill="#0070FF"/>
<path d="M36.9188 33.1484V34.3927H27.673V33.1484C28.0274 32.8693 28.216 32.7034 28.5553 32.4244H36.044C36.3834 32.7034 36.5719 32.8693 36.9188 33.1484ZM37.8388 8.11081L21.2402 0.961549C20.7726 0.705118 20.2221 0.705118 19.762 0.961549L3.16338 8.11081C1.82853 8.85745 2.36394 10.8936 3.89488 10.8936H37.0998C38.6382 10.8936 39.1737 8.85746 37.8388 8.11081ZM20.5011 8.63117C19.2111 8.63117 18.1255 7.58502 18.1255 6.25565C18.1255 4.95095 19.1889 3.88763 20.5011 3.88763C21.8383 3.88763 22.8691 4.97545 22.8691 6.25565C22.8691 7.56786 21.8058 8.63117 20.5011 8.63117ZM2.40039 38.8537V37.2013C2.40039 36.4812 2.98413 35.8975 3.70421 35.8975L37.2954 35.8975C38.0155 35.8975 38.5993 36.4812 38.5993 37.2013V38.8537C38.5993 39.0611 38.4296 39.2308 38.2222 39.2308L2.77746 39.2308C2.56628 39.2308 2.40039 39.0573 2.40039 38.8537ZM26.6624 22.4245C26.6624 22.3953 26.6624 22.5774 26.6624 21.8362L28.1632 20.5391C28.4422 20.2978 28.5026 19.9056 28.3216 19.5889L26.6097 16.6251C26.4287 16.3159 26.0516 16.1726 25.7122 16.2933L23.842 16.9418C23.676 16.8362 23.5101 16.7382 23.3292 16.6477L22.9521 14.687C22.8842 14.3325 22.575 14.0761 22.213 14.0761H18.7892C18.4272 14.0761 18.118 14.3325 18.0501 14.687L17.6655 16.6477C17.4996 16.7382 17.3337 16.8363 17.1678 16.9418L15.2824 16.2933C14.9431 16.1726 14.566 16.3159 14.385 16.6251L12.6731 19.5889C12.4921 19.9056 12.56 20.2978 12.8315 20.5391L14.3473 21.8438C14.3367 21.9925 14.337 22.2832 14.3473 22.4169L12.839 23.714C12.56 23.9554 12.4921 24.3551 12.6731 24.6642L14.385 27.628C14.566 27.9448 14.9431 28.0805 15.2824 27.9674L17.1678 27.3113C17.3337 27.4244 17.4996 27.5225 17.6655 27.6054L18.0501 29.5662C18.118 29.9207 18.4272 30.177 18.7892 30.177H22.213C22.575 30.177 22.8842 29.9207 22.9521 29.5662L23.3291 27.613C23.5101 27.5149 23.676 27.4169 23.842 27.3113L25.7122 27.9674C26.0516 28.0881 26.4287 27.9448 26.6097 27.628L28.3216 24.6642C28.5026 24.3551 28.4347 23.9554 28.1632 23.714L26.6624 22.4245ZM20.5011 24.6341C19.1135 24.6341 17.9973 23.5104 17.9973 22.1303C17.9973 20.7427 19.1135 19.6266 20.5011 19.6266C21.8812 19.6266 23.0049 20.7427 23.0049 22.1303C23.0049 23.5104 21.8812 24.6341 20.5011 24.6341Z" fill="#0070FF"/>
</svg>
