<svg width="330" height="381" xmlns="http://www.w3.org/2000/svg" xmlns:xlink="http://www.w3.org/1999/xlink" xml:space="preserve" overflow="hidden"><g transform="translate(-1870 -315)"><g><g><g><path d="M1904.38 438.188 1904.38 623.813 2165.62 623.813 2165.62 438.188ZM2042.29 556.658C2038.26 560.669 2031.74 560.669 2027.71 556.658L1916.17 445.121C1916.16 445.108 1916.16 445.086 1916.17 445.073 1916.18 445.066 1916.18 445.063 1916.19 445.063L2153.81 445.063C2153.83 445.063 2153.84 445.078 2153.84 445.097 2153.84 445.106 2153.84 445.115 2153.83 445.121ZM1992.33 531 1911.31 612.019C1911.3 612.032 1911.27 612.032 1911.26 612.018 1911.25 612.012 1911.25 612.003 1911.25 611.994L1911.25 450.006C1911.25 449.987 1911.27 449.972 1911.28 449.972 1911.29 449.972 1911.3 449.975 1911.31 449.982ZM1997.19 535.861 2022.84 561.518C2029.56 568.231 2040.44 568.233 2047.15 561.521 2047.15 561.52 2047.15 561.519 2047.16 561.518L2072.81 535.861 2153.83 616.879C2153.84 616.893 2153.84 616.915 2153.83 616.928 2153.82 616.934 2153.82 616.938 2153.81 616.938L1916.19 616.938C1916.17 616.937 1916.16 616.922 1916.16 616.903 1916.16 616.894 1916.16 616.885 1916.17 616.879ZM2077.67 531 2158.69 449.982C2158.71 449.968 2158.73 449.969 2158.74 449.982 2158.75 449.989 2158.75 449.997 2158.75 450.006L2158.75 611.994C2158.75 612.013 2158.73 612.029 2158.72 612.029 2158.71 612.028 2158.7 612.025 2158.69 612.019Z" stroke="#7F7F7F" stroke-width="3.4375" fill="none"/></g></g></g><path d="M1962.5 434.5C1962.5 396.945 1995.18 366.5 2035.5 366.5 2075.82 366.5 2108.5 396.945 2108.5 434.5 2108.5 472.055 2075.82 502.5 2035.5 502.5 1995.18 502.5 1962.5 472.055 1962.5 434.5Z" stroke="#042433" stroke-width="6.875" stroke-miterlimit="8" fill="#FFFFFF" fill-rule="evenodd"/><g><g><g><path d="M107.966 22.5C60.7707 22.4987 22.5103 60.7572 22.509 107.953 22.5076 155.148 60.7662 193.409 107.962 193.41 155.157 193.411 193.418 155.153 193.419 107.957 193.419 107.954 193.419 107.951 193.419 107.948 193.436 60.7738 155.208 22.5173 108.034 22.5 108.011 22.5 107.989 22.5 107.966 22.5ZM146.149 135.38 135.391 146.137 107.966 118.708 80.5499 146.133 69.7927 135.376 97.1999 107.948 69.7815 80.5229 80.5499 69.7657 107.966 97.1999 135.391 69.7657 146.149 80.5229 118.723 107.948Z" fill="#FF0000" transform="matrix(1 0 0 1 1927 315)"/></g></g></g></g></svg>