<svg width="119" height="32" viewBox="0 0 119 32" fill="none" xmlns="http://www.w3.org/2000/svg">
<path d="M9.03874 24.7329H4.08551L4.75505 13.3058H8.36305L9.03874 24.7329Z" fill="#0070FF"/>
<path d="M9.77417 9.92371V11.4357L9.06955 12.0972H4.05294L3.34894 11.4357V9.92371H9.77417Z" fill="#0070FF"/>
<path d="M10.2575 26.5187V27.5142H2.86084V26.5187C3.14442 26.2955 3.29525 26.1628 3.5667 25.9395H9.55765C9.82911 26.1628 9.97994 26.2955 10.2575 26.5187Z" fill="#0070FF"/>
<path d="M27.9163 24.7329H22.9631L23.6332 13.3058H27.2406L27.9163 24.7329Z" fill="#0070FF"/>
<path d="M28.6511 9.92371V11.4357L27.9471 12.0972H22.9304L22.2258 11.4357V9.92371H28.6511Z" fill="#0070FF"/>
<path d="M29.1351 26.5187V27.5142H21.7385V26.5187C22.0221 26.2955 22.1729 26.1628 22.4444 25.9395H28.4353C28.7068 26.1628 28.8576 26.2955 29.1351 26.5187ZM29.8712 6.48865L16.5923 0.769245C16.2182 0.564101 15.7778 0.564101 15.4097 0.769245L2.13083 6.48865C1.06296 7.08597 1.49128 8.71489 2.71603 8.71489H29.28C30.5107 8.71489 30.9391 7.08597 29.8712 6.48865ZM16.001 6.90494C14.969 6.90494 14.1006 6.06802 14.1006 5.00453C14.1006 3.96077 14.9513 3.11011 16.001 3.11011C17.0708 3.11011 17.8954 3.98037 17.8954 5.00453C17.8954 6.05429 17.0447 6.90494 16.001 6.90494ZM1.52045 31.083V29.761C1.52045 29.185 1.98744 28.718 2.5635 28.718L29.4365 28.718C30.0125 28.718 30.4795 29.185 30.4795 29.761V31.083C30.4795 31.2489 30.3438 31.3846 30.1779 31.3846L1.8221 31.3846C1.65315 31.3846 1.52045 31.2459 1.52045 31.083ZM20.9301 17.9396C20.9301 17.9162 20.9301 18.0619 20.9301 17.469L22.1307 16.4313C22.3539 16.2382 22.4022 15.9245 22.2574 15.6711L20.8879 13.3001C20.7431 13.0527 20.4414 12.9381 20.1699 13.0346L18.6737 13.5535C18.541 13.469 18.4082 13.3906 18.2635 13.3182L17.9618 11.7496C17.9075 11.466 17.6601 11.2609 17.3705 11.2609H14.6315C14.3419 11.2609 14.0945 11.466 14.0403 11.7496L13.7326 13.3182C13.5998 13.3906 13.4671 13.469 13.3343 13.5535L11.8261 13.0346C11.5546 12.9381 11.2529 13.0527 11.1081 13.3001L9.73862 15.6711C9.59384 15.9245 9.64811 16.2382 9.8653 16.4313L11.078 17.475C11.0695 17.594 11.0697 17.8266 11.078 17.9335L9.87133 18.9712C9.64811 19.1643 9.59383 19.4841 9.73862 19.7314L11.1081 22.1024C11.2529 22.3558 11.5546 22.4644 11.8261 22.3739L13.3343 21.849C13.4671 21.9396 13.5998 22.018 13.7326 22.0843L14.0402 23.653C14.0945 23.9365 14.3419 24.1416 14.6315 24.1416H17.3705C17.6601 24.1416 17.9075 23.9365 17.9618 23.653L18.2634 22.0904C18.4082 22.0119 18.5409 21.9335 18.6737 21.849L20.1699 22.3739C20.4414 22.4705 20.7431 22.3558 20.8879 22.1024L22.2574 19.7314C22.4022 19.4841 22.3479 19.1643 22.1307 18.9712L20.9301 17.9396ZM16.001 19.7073C14.8909 19.7073 13.998 18.8084 13.998 17.7043C13.998 16.5942 14.8909 15.7013 16.001 15.7013C17.1051 15.7013 18.004 16.5942 18.004 17.7043C18.004 18.8084 17.1051 19.7073 16.001 19.7073Z" fill="#0070FF"/>
<path d="M44.176 14.476H50.242V16.744H44.176V14.476ZM44.392 19.66H51.25V22H41.494V9.4H51.016V11.74H44.392V19.66ZM56.5774 22.144C55.7494 22.144 54.9514 22.048 54.1834 21.856C53.4274 21.652 52.8274 21.4 52.3834 21.1L53.3194 19.084C53.7634 19.36 54.2854 19.588 54.8854 19.768C55.4974 19.936 56.0974 20.02 56.6854 20.02C57.3334 20.02 57.7894 19.942 58.0534 19.786C58.3294 19.63 58.4674 19.414 58.4674 19.138C58.4674 18.91 58.3594 18.742 58.1434 18.634C57.9394 18.514 57.6634 18.424 57.3154 18.364C56.9674 18.304 56.5834 18.244 56.1634 18.184C55.7554 18.124 55.3414 18.046 54.9214 17.95C54.5014 17.842 54.1174 17.686 53.7694 17.482C53.4214 17.278 53.1394 17.002 52.9234 16.654C52.7194 16.306 52.6174 15.856 52.6174 15.304C52.6174 14.692 52.7914 14.152 53.1394 13.684C53.4994 13.216 54.0154 12.85 54.6874 12.586C55.3594 12.31 56.1634 12.172 57.0994 12.172C57.7594 12.172 58.4314 12.244 59.1154 12.388C59.7994 12.532 60.3694 12.742 60.8254 13.018L59.8894 15.016C59.4214 14.74 58.9474 14.554 58.4674 14.458C57.9994 14.35 57.5434 14.296 57.0994 14.296C56.4754 14.296 56.0194 14.38 55.7314 14.548C55.4434 14.716 55.2994 14.932 55.2994 15.196C55.2994 15.436 55.4014 15.616 55.6054 15.736C55.8214 15.856 56.1034 15.952 56.4514 16.024C56.7994 16.096 57.1774 16.162 57.5854 16.222C58.0054 16.27 58.4254 16.348 58.8454 16.456C59.2654 16.564 59.6434 16.72 59.9794 16.924C60.3274 17.116 60.6094 17.386 60.8254 17.734C61.0414 18.07 61.1494 18.514 61.1494 19.066C61.1494 19.666 60.9694 20.2 60.6094 20.668C60.2494 21.124 59.7274 21.484 59.0434 21.748C58.3714 22.012 57.5494 22.144 56.5774 22.144ZM67.5619 22.144C66.5179 22.144 65.5879 21.934 64.7719 21.514C63.9559 21.082 63.3139 20.488 62.8459 19.732C62.3899 18.976 62.1619 18.118 62.1619 17.158C62.1619 16.186 62.3899 15.328 62.8459 14.584C63.3139 13.828 63.9559 13.24 64.7719 12.82C65.5879 12.388 66.5179 12.172 67.5619 12.172C68.5819 12.172 69.4699 12.388 70.2259 12.82C70.9819 13.24 71.5399 13.846 71.8999 14.638L69.7219 15.808C69.4699 15.352 69.1519 15.016 68.7679 14.8C68.3959 14.584 67.9879 14.476 67.5439 14.476C67.0639 14.476 66.6319 14.584 66.2479 14.8C65.8639 15.016 65.5579 15.322 65.3299 15.718C65.1139 16.114 65.0059 16.594 65.0059 17.158C65.0059 17.722 65.1139 18.202 65.3299 18.598C65.5579 18.994 65.8639 19.3 66.2479 19.516C66.6319 19.732 67.0639 19.84 67.5439 19.84C67.9879 19.84 68.3959 19.738 68.7679 19.534C69.1519 19.318 69.4699 18.976 69.7219 18.508L71.8999 19.696C71.5399 20.476 70.9819 21.082 70.2259 21.514C69.4699 21.934 68.5819 22.144 67.5619 22.144ZM79.4567 22V20.11L79.2767 19.696V16.312C79.2767 15.712 79.0907 15.244 78.7187 14.908C78.3587 14.572 77.8007 14.404 77.0447 14.404C76.5287 14.404 76.0187 14.488 75.5147 14.656C75.0227 14.812 74.6027 15.028 74.2547 15.304L73.2467 13.342C73.7747 12.97 74.4107 12.682 75.1547 12.478C75.8987 12.274 76.6547 12.172 77.4227 12.172C78.8987 12.172 80.0447 12.52 80.8607 13.216C81.6767 13.912 82.0847 14.998 82.0847 16.474V22H79.4567ZM76.5047 22.144C75.7487 22.144 75.1007 22.018 74.5607 21.766C74.0207 21.502 73.6067 21.148 73.3187 20.704C73.0307 20.26 72.8867 19.762 72.8867 19.21C72.8867 18.634 73.0247 18.13 73.3007 17.698C73.5887 17.266 74.0387 16.93 74.6507 16.69C75.2627 16.438 76.0607 16.312 77.0447 16.312H79.6187V17.95H77.3507C76.6907 17.95 76.2347 18.058 75.9827 18.274C75.7427 18.49 75.6227 18.76 75.6227 19.084C75.6227 19.444 75.7607 19.732 76.0367 19.948C76.3247 20.152 76.7147 20.254 77.2067 20.254C77.6747 20.254 78.0947 20.146 78.4667 19.93C78.8387 19.702 79.1087 19.372 79.2767 18.94L79.7087 20.236C79.5047 20.86 79.1327 21.334 78.5927 21.658C78.0527 21.982 77.3567 22.144 76.5047 22.144ZM84.6261 22V8.644H87.4341V22H84.6261ZM95.9801 22V20.11L95.8001 19.696V16.312C95.8001 15.712 95.6141 15.244 95.2421 14.908C94.8821 14.572 94.3241 14.404 93.5681 14.404C93.0521 14.404 92.5421 14.488 92.0381 14.656C91.5461 14.812 91.1261 15.028 90.7781 15.304L89.7701 13.342C90.2981 12.97 90.9341 12.682 91.6781 12.478C92.4221 12.274 93.1781 12.172 93.9461 12.172C95.4221 12.172 96.5681 12.52 97.3841 13.216C98.2001 13.912 98.6081 14.998 98.6081 16.474V22H95.9801ZM93.0281 22.144C92.2721 22.144 91.6241 22.018 91.0841 21.766C90.5441 21.502 90.1301 21.148 89.8421 20.704C89.5541 20.26 89.4101 19.762 89.4101 19.21C89.4101 18.634 89.5481 18.13 89.8241 17.698C90.1121 17.266 90.5621 16.93 91.1741 16.69C91.7861 16.438 92.5841 16.312 93.5681 16.312H96.1421V17.95H93.8741C93.2141 17.95 92.7581 18.058 92.5061 18.274C92.2661 18.49 92.1461 18.76 92.1461 19.084C92.1461 19.444 92.2841 19.732 92.5601 19.948C92.8481 20.152 93.2381 20.254 93.7301 20.254C94.1981 20.254 94.6181 20.146 94.9901 19.93C95.3621 19.702 95.6321 19.372 95.8001 18.94L96.2321 20.236C96.0281 20.86 95.6561 21.334 95.1161 21.658C94.5761 21.982 93.8801 22.144 93.0281 22.144ZM102.198 25.636C101.694 25.636 101.196 25.558 100.704 25.402C100.212 25.246 99.8097 25.03 99.4977 24.754L100.524 22.756C100.74 22.948 100.986 23.098 101.262 23.206C101.55 23.314 101.832 23.368 102.108 23.368C102.504 23.368 102.816 23.272 103.044 23.08C103.284 22.9 103.5 22.594 103.692 22.162L104.196 20.974L104.412 20.668L107.886 12.316H110.586L106.212 22.594C105.9 23.374 105.54 23.986 105.132 24.43C104.736 24.874 104.292 25.186 103.8 25.366C103.32 25.546 102.786 25.636 102.198 25.636ZM103.854 22.378L99.5337 12.316H102.432L105.78 20.416L103.854 22.378ZM115.955 22.144C114.815 22.144 113.927 21.856 113.291 21.28C112.655 20.692 112.337 19.822 112.337 18.67V10.174H115.145V18.634C115.145 19.042 115.253 19.36 115.469 19.588C115.685 19.804 115.979 19.912 116.351 19.912C116.795 19.912 117.173 19.792 117.485 19.552L118.241 21.532C117.953 21.736 117.605 21.892 117.197 22C116.801 22.096 116.387 22.144 115.955 22.144ZM110.843 14.692V12.532H117.557V14.692H110.843Z" fill="#0070FF"/>
</svg>
