<svg width="24" height="24" viewBox="0 0 24 24" fill="none" xmlns="http://www.w3.org/2000/svg">
<circle cx="12" cy="12" r="12" fill="#FFA500" fill-opacity="0.1"/>
<path d="M6.375 12C6.375 13.4918 6.96763 14.9226 8.02252 15.9775C9.07742 17.0324 10.5082 17.625 12 17.625C13.4918 17.625 14.9226 17.0324 15.9775 15.9775C17.0324 14.9226 17.625 13.4918 17.625 12M6.375 12C6.375 10.5082 6.96763 9.07742 8.02252 8.02253C9.07742 6.96763 10.5082 6.375 12 6.375C13.4918 6.375 14.9226 6.96763 15.9775 8.02253C17.0324 9.07742 17.625 10.5082 17.625 12M6.375 12H5.25M17.625 12H18.75M17.625 12H12L8.625 6.15375M5.65725 14.3078L6.71475 13.923M17.286 10.0755L18.3435 9.69075M6.8295 16.3388L7.692 15.6158M16.3095 8.38425L17.1713 7.66125M8.62575 17.8463L9.18825 16.8713L12.0015 12M14.8133 7.12875L15.3757 6.15375M10.8285 18.6473L11.0235 17.5395M12.9773 6.4605L13.1722 5.35275M13.1722 18.6473L12.9773 17.5395M11.0235 6.4605L10.8285 5.35275M15.375 17.8455L14.8125 16.8713M17.1705 16.3388L16.3088 15.6158M7.692 8.3835L6.8295 7.6605M18.3435 14.3085L17.286 13.9238M6.7155 10.0763L5.658 9.69075" stroke="#FFA500" stroke-linecap="round" stroke-linejoin="round"/>
</svg>
