<svg width="24" height="24" viewBox="0 0 24 24" fill="none" xmlns="http://www.w3.org/2000/svg">
<circle cx="12" cy="12" r="12" fill="#FF4C4C" fill-opacity="0.1"/>
<path d="M19.3125 9.75002V10.4295C19.3125 10.7342 19.23 11.0332 19.0738 11.2948C18.9176 11.5564 18.6935 11.7708 18.4252 11.9153L13.5667 14.5313M4.6875 9.75002V10.4295C4.68749 10.7342 4.76996 11.0332 4.92618 11.2948C5.08239 11.5564 5.30651 11.7708 5.57475 11.9153L10.4333 14.5313M10.4333 14.5313L11.1997 14.1188C11.4457 13.9863 11.7207 13.9169 12 13.9169C12.2793 13.9169 12.5543 13.9863 12.8003 14.1188L13.5675 14.5313L17.0625 16.4138M10.4333 14.5313L6.9375 16.4138M19.3125 17.625C19.3125 18.0726 19.1347 18.5018 18.8182 18.8183C18.5018 19.1347 18.0726 19.3125 17.625 19.3125H6.375C5.92745 19.3125 5.49822 19.1347 5.18176 18.8183C4.86529 18.5018 4.6875 18.0726 4.6875 17.625V9.63301C4.68749 9.32834 4.76996 9.02934 4.92618 8.76775C5.08239 8.50616 5.30651 8.29175 5.57475 8.14726L11.1997 5.11801C11.4457 4.98554 11.7207 4.9162 12 4.9162C12.2793 4.9162 12.5543 4.98554 12.8003 5.11801L18.4252 8.14726C18.6934 8.29169 18.9174 8.50599 19.0736 8.76743C19.2298 9.02887 19.3124 9.32771 19.3125 9.63227V17.625Z" stroke="#FF4C4C" stroke-linecap="round" stroke-linejoin="round"/>
</svg>
