<svg width="27" height="15" viewBox="0 0 27 15" fill="none" xmlns="http://www.w3.org/2000/svg">
<path d="M9.58168 5.18537C9.50923 4.9169 9.4027 4.6804 9.26207 4.47585C9.12145 4.26705 8.94886 4.0902 8.74432 3.94531C8.53977 3.80043 8.3054 3.69176 8.04119 3.61932C7.77699 3.54261 7.48722 3.50426 7.17188 3.50426C6.53693 3.50426 5.98722 3.65767 5.52273 3.96449C5.0625 4.27131 4.70668 4.71875 4.45526 5.30682C4.20384 5.89062 4.07812 6.60014 4.07812 7.43537C4.07812 8.27486 4.19957 8.99077 4.44247 9.5831C4.68537 10.1754 5.03693 10.6271 5.49716 10.9382C5.95739 11.2493 6.51562 11.4048 7.17188 11.4048C7.75142 11.4048 8.24148 11.3111 8.64205 11.1236C9.04688 10.9318 9.35369 10.6612 9.5625 10.3118C9.77131 9.96236 9.87571 9.55114 9.87571 9.07812L10.4638 9.14844H7.28054V6.84091H12.9247V8.57315C12.9247 9.74503 12.6754 10.7486 12.1768 11.5838C11.6825 12.419 11.0007 13.0604 10.1314 13.5078C9.26634 13.9553 8.27131 14.179 7.14631 14.179C5.89773 14.179 4.80043 13.9084 3.8544 13.3672C2.90838 12.826 2.17116 12.0547 1.64276 11.0533C1.11435 10.0476 0.850142 8.8544 0.850142 7.47372C0.850142 6.39986 1.00994 5.44744 1.32955 4.61648C1.64915 3.78125 2.09446 3.07386 2.66548 2.49432C3.24077 1.91477 3.90554 1.47585 4.6598 1.17756C5.41832 0.879261 6.23438 0.730113 7.10795 0.730113C7.86648 0.730113 8.57173 0.838778 9.22372 1.05611C9.87997 1.27344 10.4595 1.58026 10.9624 1.97656C11.4695 2.37287 11.8807 2.84375 12.196 3.3892C12.5114 3.93466 12.7074 4.53338 12.7841 5.18537H9.58168ZM17.217 14H13.8164L18.2333 0.909091H22.4457L26.8626 14H23.462L20.3874 4.20739H20.2852L17.217 14ZM16.7631 8.84801H23.8711V11.2514H16.7631V8.84801Z" fill="#F2F2F2"/>
</svg>
