<svg width="24" height="24" viewBox="0 0 24 24" fill="none" xmlns="http://www.w3.org/2000/svg">
<path fill-rule="evenodd" clip-rule="evenodd" d="M12.0001 12C9.33966 12 7.17727 9.84718 7.17727 7.19998C7.17727 4.55278 9.33966 2.39998 12.0001 2.39998C14.6605 2.39998 16.8229 4.55278 16.8229 7.19998C16.8229 9.84718 14.6605 12 12.0001 12ZM16.5313 12.8076C17.5228 12.0181 18.2874 10.9799 18.7473 9.79891C19.2073 8.61787 19.3461 7.33604 19.1497 6.08392C18.6733 2.93632 16.0429 0.417572 12.8665 0.0503722C8.48406 -0.457228 4.76646 2.93878 4.76646 7.19998C4.76646 9.46798 5.82246 11.4888 7.46886 12.8076C3.42246 14.3208 0.468059 17.874 0.00485908 22.6692C-0.0113362 22.8373 0.0077439 23.0071 0.060871 23.1675C0.113998 23.3279 0.200008 23.4754 0.313401 23.6007C0.426794 23.7259 0.565073 23.826 0.719401 23.8948C0.873729 23.9636 1.04071 23.9994 1.20967 24C1.50582 24.0024 1.79218 23.8941 2.01261 23.6963C2.23304 23.4985 2.37165 23.2255 2.40126 22.9308C2.88486 17.5752 7.00446 14.4 12.0001 14.4C16.9957 14.4 21.1153 17.5752 21.5989 22.9308C21.6285 23.2255 21.7671 23.4985 21.9875 23.6963C22.2079 23.8941 22.4943 24.0024 22.7905 24C23.5057 24 24.0625 23.3784 23.9941 22.6692C23.5321 17.874 20.5777 14.3208 16.5301 12.8076" fill="#0070FF"/>
</svg>
