<svg width="42" height="40" viewBox="0 0 42 40" fill="none" xmlns="http://www.w3.org/2000/svg">
<rect width="42" height="40" rx="20" fill="#0070FF"/>
<path d="M16.5817 18.1854C16.5092 17.9169 16.4027 17.6804 16.2621 17.4759C16.1214 17.267 15.9489 17.0902 15.7443 16.9453C15.5398 16.8004 15.3054 16.6918 15.0412 16.6193C14.777 16.5426 14.4872 16.5043 14.1719 16.5043C13.5369 16.5043 12.9872 16.6577 12.5227 16.9645C12.0625 17.2713 11.7067 17.7187 11.4553 18.3068C11.2038 18.8906 11.0781 19.6001 11.0781 20.4354C11.0781 21.2749 11.1996 21.9908 11.4425 22.5831C11.6854 23.1754 12.0369 23.6271 12.4972 23.9382C12.9574 24.2493 13.5156 24.4048 14.1719 24.4048C14.7514 24.4048 15.2415 24.3111 15.642 24.1236C16.0469 23.9318 16.3537 23.6612 16.5625 23.3118C16.7713 22.9624 16.8757 22.5511 16.8757 22.0781L17.4638 22.1484H14.2805V19.8409H19.9247V21.5732C19.9247 22.745 19.6754 23.7486 19.1768 24.5838C18.6825 25.419 18.0007 26.0604 17.1314 26.5078C16.2663 26.9553 15.2713 27.179 14.1463 27.179C12.8977 27.179 11.8004 26.9084 10.8544 26.3672C9.90838 25.826 9.17116 25.0547 8.64276 24.0533C8.11435 23.0476 7.85014 21.8544 7.85014 20.4737C7.85014 19.3999 8.00994 18.4474 8.32955 17.6165C8.64915 16.7812 9.09446 16.0739 9.66548 15.4943C10.2408 14.9148 10.9055 14.4759 11.6598 14.1776C12.4183 13.8793 13.2344 13.7301 14.108 13.7301C14.8665 13.7301 15.5717 13.8388 16.2237 14.0561C16.88 14.2734 17.4595 14.5803 17.9624 14.9766C18.4695 15.3729 18.8807 15.8438 19.196 16.3892C19.5114 16.9347 19.7074 17.5334 19.7841 18.1854H16.5817ZM24.217 27H20.8164L25.2333 13.9091H29.4457L33.8626 27H30.462L27.3874 17.2074H27.2852L24.217 27ZM23.7631 21.848H30.8711V24.2514H23.7631V21.848Z" fill="#F2F2F2"/>
</svg>
