<svg width="24" height="24" viewBox="0 0 24 24" fill="none" xmlns="http://www.w3.org/2000/svg">
<circle cx="12" cy="12" r="12" fill="#32CD32" fill-opacity="0.1"/>
<path d="M9.75 12.5625L11.4375 14.25L14.25 10.3125M18.75 12C18.75 12.951 18.2775 13.7925 17.5553 14.301C17.6331 14.7456 17.6026 15.2024 17.4664 15.6327C17.3303 16.063 17.0924 16.4541 16.773 16.773C16.4541 17.0924 16.063 17.3303 15.6327 17.4664C15.2024 17.6026 14.7456 17.6331 14.301 17.5552C14.0417 17.9246 13.6971 18.226 13.2966 18.434C12.8961 18.642 12.4513 18.7504 12 18.75C11.049 18.75 10.2075 18.2775 9.699 17.5552C9.25443 17.633 8.79766 17.6025 8.36737 17.4663C7.93707 17.3302 7.54591 17.0924 7.227 16.773C6.90759 16.4541 6.66973 16.063 6.53357 15.6327C6.3974 15.2024 6.36693 14.7456 6.44475 14.301C6.07539 14.0417 5.77397 13.6971 5.566 13.2966C5.35802 12.8961 5.24963 12.4513 5.25 12C5.25 11.049 5.7225 10.2075 6.44475 9.699C6.36693 9.25442 6.3974 8.79764 6.53357 8.36734C6.66973 7.93703 6.90759 7.54588 7.227 7.227C7.54591 6.90765 7.93707 6.66982 8.36737 6.53366C8.79766 6.39749 9.25443 6.367 9.699 6.44475C9.95838 6.07544 10.3029 5.77405 10.7034 5.56608C11.104 5.35811 11.5487 5.2497 12 5.25C12.951 5.25 13.7925 5.7225 14.301 6.44475C14.7456 6.367 15.2023 6.39749 15.6326 6.53366C16.0629 6.66982 16.4541 6.90765 16.773 7.227C17.0924 7.54591 17.3302 7.93707 17.4663 8.36737C17.6025 8.79766 17.633 9.25442 17.5553 9.699C17.9246 9.95834 18.226 10.3029 18.434 10.7034C18.642 11.1039 18.7504 11.5487 18.75 12Z" stroke="#32CD32" stroke-linecap="round" stroke-linejoin="round"/>
</svg>
