<svg width="24" height="24" viewBox="0 0 24 24" fill="none" xmlns="http://www.w3.org/2000/svg">
<circle cx="12" cy="12" r="12" fill="#0070FF" fill-opacity="0.1"/>
<path d="M5.81255 10.332C5.89655 10.3193 5.9828 10.3125 6.07055 10.3125H17.9296C18.0173 10.3125 18.1036 10.3193 18.1876 10.332M5.81255 10.332C5.37362 10.4 4.97919 10.6383 4.71481 10.9952C4.45043 11.3521 4.33743 11.7988 4.4003 12.2385L5.04305 16.7385C5.10046 17.1406 5.30097 17.5085 5.60778 17.7747C5.9146 18.0408 6.30712 18.1874 6.7133 18.1875H17.2875C17.6937 18.1874 18.0863 18.0408 18.3931 17.7747C18.6999 17.5085 18.9004 17.1406 18.9578 16.7385L19.6006 12.2385C19.6634 11.7988 19.5504 11.3521 19.286 10.9952C19.0217 10.6383 18.6265 10.4 18.1876 10.332M5.81255 10.332L5.8133 7.5C5.8133 7.05258 5.99099 6.62347 6.30729 6.30702C6.6236 5.99058 7.05263 5.8127 7.50005 5.8125H10.4093C10.7076 5.81276 10.9935 5.93146 11.2043 6.1425L12.7958 7.7325C13.0066 7.94354 13.2925 8.06224 13.5908 8.0625H16.5001C16.9476 8.0625 17.3768 8.24029 17.6933 8.55676C18.0098 8.87323 18.1876 9.30245 18.1876 9.75V10.332" stroke="#0070FF" stroke-linecap="round" stroke-linejoin="round"/>
</svg>
